<mxfile host="app.diagrams.net" modified="2024-02-23T12:02:17.170Z" agent="Mozilla/5.0 (Windows NT 10.0; Win64; x64) AppleWebKit/537.36 (KHTML, like Gecko) Chrome/121.0.0.0 Safari/537.36" etag="FgDAafj-9KmYVGcmfLcl" version="23.1.2" type="device" pages="3">
  <diagram name="Nivel 0" id="SafWx4brjYpnWSdm_k4d">
    <mxGraphModel dx="1434" dy="746" grid="1" gridSize="10" guides="1" tooltips="1" connect="1" arrows="1" fold="1" page="1" pageScale="1" pageWidth="827" pageHeight="1169" math="0" shadow="0">
      <root>
        <mxCell id="0" />
        <mxCell id="1" parent="0" />
        <mxCell id="9HRDA_Y_tNeIT0vI-eqv-4" style="edgeStyle=orthogonalEdgeStyle;rounded=0;orthogonalLoop=1;jettySize=auto;html=1;exitX=0.5;exitY=0;exitDx=0;exitDy=0;entryX=0.5;entryY=0;entryDx=0;entryDy=0;" edge="1" parent="1" source="9HRDA_Y_tNeIT0vI-eqv-2" target="9HRDA_Y_tNeIT0vI-eqv-3">
          <mxGeometry relative="1" as="geometry">
            <Array as="points">
              <mxPoint x="210" y="280" />
            </Array>
          </mxGeometry>
        </mxCell>
        <mxCell id="9HRDA_Y_tNeIT0vI-eqv-2" value="Jugador" style="rounded=0;whiteSpace=wrap;html=1;fillColor=#dae8fc;strokeColor=#6c8ebf;" vertex="1" parent="1">
          <mxGeometry x="150" y="350" width="120" height="60" as="geometry" />
        </mxCell>
        <mxCell id="9HRDA_Y_tNeIT0vI-eqv-6" style="edgeStyle=orthogonalEdgeStyle;rounded=0;orthogonalLoop=1;jettySize=auto;html=1;exitX=0.5;exitY=1;exitDx=0;exitDy=0;entryX=0.5;entryY=1;entryDx=0;entryDy=0;" edge="1" parent="1" source="9HRDA_Y_tNeIT0vI-eqv-3" target="9HRDA_Y_tNeIT0vI-eqv-2">
          <mxGeometry relative="1" as="geometry">
            <Array as="points">
              <mxPoint x="630" y="480" />
              <mxPoint x="210" y="480" />
            </Array>
          </mxGeometry>
        </mxCell>
        <mxCell id="9HRDA_Y_tNeIT0vI-eqv-3" value="Laberinto DAM1" style="ellipse;whiteSpace=wrap;html=1;aspect=fixed;fillColor=#fff2cc;strokeColor=#d6b656;" vertex="1" parent="1">
          <mxGeometry x="580" y="330" width="100" height="100" as="geometry" />
        </mxCell>
        <mxCell id="9HRDA_Y_tNeIT0vI-eqv-5" value="Opcion Menu&lt;br&gt;Opcion Menu dificultad&lt;br&gt;Opcion Quiere Jugar&lt;br&gt;Movimiento Jugador&lt;br&gt;Salir Pantalla de Victoria&lt;br&gt;Salir pantalla de Derrota" style="text;html=1;strokeColor=none;fillColor=none;align=center;verticalAlign=middle;whiteSpace=wrap;rounded=0;" vertex="1" parent="1">
          <mxGeometry x="321" y="180" width="186" height="90" as="geometry" />
        </mxCell>
        <mxCell id="9HRDA_Y_tNeIT0vI-eqv-7" value="Menu Principal&lt;br&gt;Menu Dificultad&lt;br&gt;Mapa&lt;br&gt;Quiere jugar&lt;br&gt;Pantalla de Victoria&lt;br&gt;Pantalla de Derrota" style="text;html=1;strokeColor=none;fillColor=none;align=center;verticalAlign=middle;whiteSpace=wrap;rounded=0;" vertex="1" parent="1">
          <mxGeometry x="339" y="480" width="150" height="130" as="geometry" />
        </mxCell>
        <mxCell id="9HRDA_Y_tNeIT0vI-eqv-8" value="El&amp;nbsp; resto de niveles están en sus respectivas paginas" style="text;html=1;strokeColor=none;fillColor=none;align=center;verticalAlign=middle;whiteSpace=wrap;rounded=0;" vertex="1" parent="1">
          <mxGeometry x="10" y="620" width="240" height="60" as="geometry" />
        </mxCell>
        <mxCell id="9HRDA_Y_tNeIT0vI-eqv-9" value="" style="endArrow=classic;html=1;rounded=0;" edge="1" parent="1">
          <mxGeometry width="50" height="50" relative="1" as="geometry">
            <mxPoint x="120" y="690" as="sourcePoint" />
            <mxPoint x="60" y="740" as="targetPoint" />
          </mxGeometry>
        </mxCell>
      </root>
    </mxGraphModel>
  </diagram>
  <diagram id="fBipnOkTllWmGM2dK26o" name="Nivel 1">
    <mxGraphModel dx="1434" dy="746" grid="1" gridSize="10" guides="1" tooltips="1" connect="1" arrows="1" fold="1" page="1" pageScale="1" pageWidth="827" pageHeight="1169" math="0" shadow="0">
      <root>
        <mxCell id="0" />
        <mxCell id="1" parent="0" />
        <mxCell id="sA4vVsF-4TFoveLAqz5J-7" style="rounded=0;orthogonalLoop=1;jettySize=auto;html=1;exitX=1;exitY=0;exitDx=0;exitDy=0;entryX=0;entryY=0.5;entryDx=0;entryDy=0;" edge="1" parent="1" source="sA4vVsF-4TFoveLAqz5J-1" target="sA4vVsF-4TFoveLAqz5J-2">
          <mxGeometry relative="1" as="geometry" />
        </mxCell>
        <mxCell id="sA4vVsF-4TFoveLAqz5J-15" style="rounded=0;orthogonalLoop=1;jettySize=auto;html=1;exitX=0.5;exitY=1;exitDx=0;exitDy=0;entryX=0;entryY=0;entryDx=0;entryDy=0;" edge="1" parent="1" source="sA4vVsF-4TFoveLAqz5J-1" target="sA4vVsF-4TFoveLAqz5J-6">
          <mxGeometry relative="1" as="geometry" />
        </mxCell>
        <mxCell id="sA4vVsF-4TFoveLAqz5J-1" value="1. Menu Principal" style="ellipse;whiteSpace=wrap;html=1;aspect=fixed;fillColor=#fff2cc;strokeColor=#d6b656;" vertex="1" parent="1">
          <mxGeometry x="60" y="300" width="130" height="130" as="geometry" />
        </mxCell>
        <mxCell id="sA4vVsF-4TFoveLAqz5J-2" value="2. Jugar" style="ellipse;whiteSpace=wrap;html=1;aspect=fixed;fillColor=#fff2cc;strokeColor=#d6b656;" vertex="1" parent="1">
          <mxGeometry x="315" y="150" width="140" height="140" as="geometry" />
        </mxCell>
        <mxCell id="sA4vVsF-4TFoveLAqz5J-3" value="" style="endArrow=classic;html=1;rounded=0;entryX=0.415;entryY=0.023;entryDx=0;entryDy=0;entryPerimeter=0;" edge="1" parent="1" target="sA4vVsF-4TFoveLAqz5J-1">
          <mxGeometry width="50" height="50" relative="1" as="geometry">
            <mxPoint x="50" y="210" as="sourcePoint" />
            <mxPoint x="130" y="130" as="targetPoint" />
          </mxGeometry>
        </mxCell>
        <mxCell id="sA4vVsF-4TFoveLAqz5J-4" value="Opcion Menú" style="edgeLabel;html=1;align=center;verticalAlign=middle;resizable=0;points=[];" vertex="1" connectable="0" parent="sA4vVsF-4TFoveLAqz5J-3">
          <mxGeometry x="-0.3164" y="1" relative="1" as="geometry">
            <mxPoint x="7" y="8" as="offset" />
          </mxGeometry>
        </mxCell>
        <mxCell id="sA4vVsF-4TFoveLAqz5J-5" value="3. Cambiar dificultad" style="ellipse;whiteSpace=wrap;html=1;aspect=fixed;fillColor=#fff2cc;strokeColor=#d6b656;" vertex="1" parent="1">
          <mxGeometry x="325" y="380" width="130" height="130" as="geometry" />
        </mxCell>
        <mxCell id="sA4vVsF-4TFoveLAqz5J-6" value="4. Salir" style="ellipse;whiteSpace=wrap;html=1;aspect=fixed;fillColor=#fff2cc;strokeColor=#d6b656;" vertex="1" parent="1">
          <mxGeometry x="330" y="545" width="80" height="80" as="geometry" />
        </mxCell>
        <mxCell id="sA4vVsF-4TFoveLAqz5J-8" style="rounded=0;orthogonalLoop=1;jettySize=auto;html=1;exitX=1;exitY=0.5;exitDx=0;exitDy=0;entryX=0;entryY=0;entryDx=0;entryDy=0;" edge="1" parent="1" source="sA4vVsF-4TFoveLAqz5J-1" target="sA4vVsF-4TFoveLAqz5J-5">
          <mxGeometry relative="1" as="geometry">
            <mxPoint x="181" y="329" as="sourcePoint" />
            <mxPoint x="320" y="240" as="targetPoint" />
          </mxGeometry>
        </mxCell>
        <mxCell id="sA4vVsF-4TFoveLAqz5J-9" style="rounded=0;orthogonalLoop=1;jettySize=auto;html=1;exitX=0;exitY=0.5;exitDx=0;exitDy=0;" edge="1" parent="1" source="sA4vVsF-4TFoveLAqz5J-5">
          <mxGeometry relative="1" as="geometry">
            <mxPoint x="171" y="450" as="sourcePoint" />
            <mxPoint x="170" y="410" as="targetPoint" />
          </mxGeometry>
        </mxCell>
        <mxCell id="xL_6orxPe1uaIk0oK8Rf-6" value="Dificultad Cambiada" style="edgeLabel;html=1;align=center;verticalAlign=middle;resizable=0;points=[];" vertex="1" connectable="0" parent="sA4vVsF-4TFoveLAqz5J-9">
          <mxGeometry x="0.084" relative="1" as="geometry">
            <mxPoint as="offset" />
          </mxGeometry>
        </mxCell>
        <mxCell id="sA4vVsF-4TFoveLAqz5J-14" style="rounded=0;orthogonalLoop=1;jettySize=auto;html=1;exitX=0;exitY=1;exitDx=0;exitDy=0;entryX=0.977;entryY=0.285;entryDx=0;entryDy=0;entryPerimeter=0;" edge="1" parent="1" source="sA4vVsF-4TFoveLAqz5J-2" target="sA4vVsF-4TFoveLAqz5J-1">
          <mxGeometry relative="1" as="geometry" />
        </mxCell>
        <mxCell id="xL_6orxPe1uaIk0oK8Rf-7" value="Juego terminado" style="edgeLabel;html=1;align=center;verticalAlign=middle;resizable=0;points=[];" vertex="1" connectable="0" parent="sA4vVsF-4TFoveLAqz5J-14">
          <mxGeometry x="0.0725" relative="1" as="geometry">
            <mxPoint as="offset" />
          </mxGeometry>
        </mxCell>
        <mxCell id="9OlagA8E_y4YxS51xMsu-1" style="rounded=0;orthogonalLoop=1;jettySize=auto;html=1;entryX=1;entryY=0;entryDx=0;entryDy=0;" edge="1" parent="1" target="sA4vVsF-4TFoveLAqz5J-2">
          <mxGeometry relative="1" as="geometry">
            <mxPoint x="580" y="110" as="sourcePoint" />
            <mxPoint x="445" y="168" as="targetPoint" />
          </mxGeometry>
        </mxCell>
        <mxCell id="04oRYMLoPPTfNG858ETF-1" value="Opcion Quiere Jugar&lt;br&gt;Movimiento Jugador&lt;br&gt;Salir Pantalla de Victoria&lt;br&gt;Salir pantalla de Derrota" style="text;html=1;strokeColor=none;fillColor=none;align=center;verticalAlign=middle;whiteSpace=wrap;rounded=0;" vertex="1" parent="1">
          <mxGeometry x="484" y="30" width="186" height="90" as="geometry" />
        </mxCell>
        <mxCell id="04oRYMLoPPTfNG858ETF-2" value="&lt;br&gt;Opcion Menu dificultad" style="text;html=1;strokeColor=none;fillColor=none;align=center;verticalAlign=middle;whiteSpace=wrap;rounded=0;" vertex="1" parent="1">
          <mxGeometry x="590" y="420" width="130" height="40" as="geometry" />
        </mxCell>
        <mxCell id="04oRYMLoPPTfNG858ETF-3" style="rounded=0;orthogonalLoop=1;jettySize=auto;html=1;entryX=1;entryY=0.5;entryDx=0;entryDy=0;" edge="1" parent="1" target="sA4vVsF-4TFoveLAqz5J-5">
          <mxGeometry relative="1" as="geometry">
            <mxPoint x="590" y="450" as="sourcePoint" />
            <mxPoint x="455" y="430" as="targetPoint" />
          </mxGeometry>
        </mxCell>
        <mxCell id="SUAjS77LJHKCxcnFxf-2-1" value="" style="endArrow=classic;html=1;rounded=0;exitX=0.6;exitY=0.023;exitDx=0;exitDy=0;exitPerimeter=0;" edge="1" parent="1" source="sA4vVsF-4TFoveLAqz5J-1">
          <mxGeometry width="50" height="50" relative="1" as="geometry">
            <mxPoint x="180" y="240" as="sourcePoint" />
            <mxPoint x="190" y="180" as="targetPoint" />
          </mxGeometry>
        </mxCell>
        <mxCell id="SUAjS77LJHKCxcnFxf-2-2" value="Menu Principal" style="edgeLabel;html=1;align=center;verticalAlign=middle;resizable=0;points=[];" vertex="1" connectable="0" parent="SUAjS77LJHKCxcnFxf-2-1">
          <mxGeometry x="-0.1122" y="-1" relative="1" as="geometry">
            <mxPoint as="offset" />
          </mxGeometry>
        </mxCell>
        <mxCell id="QLpQPQBqjzIg62Oa_utZ-1" value="Mapa&lt;br&gt;Quiere jugar&lt;br&gt;Pantalla de Victoria&lt;br&gt;Pantalla de Derrota" style="text;html=1;strokeColor=none;fillColor=none;align=center;verticalAlign=middle;whiteSpace=wrap;rounded=0;" vertex="1" parent="1">
          <mxGeometry x="620" y="180" width="120" height="80" as="geometry" />
        </mxCell>
        <mxCell id="QLpQPQBqjzIg62Oa_utZ-2" value="" style="endArrow=classic;html=1;rounded=0;exitX=1;exitY=0.5;exitDx=0;exitDy=0;" edge="1" parent="1" source="sA4vVsF-4TFoveLAqz5J-2">
          <mxGeometry width="50" height="50" relative="1" as="geometry">
            <mxPoint x="490" y="240" as="sourcePoint" />
            <mxPoint x="620" y="220" as="targetPoint" />
          </mxGeometry>
        </mxCell>
        <mxCell id="QLpQPQBqjzIg62Oa_utZ-3" value="Dificultad" style="shape=partialRectangle;whiteSpace=wrap;html=1;left=0;right=0;fillColor=#f5f5f5;fontColor=#333333;strokeColor=#666666;" vertex="1" parent="1">
          <mxGeometry x="500" y="310" width="120" height="60" as="geometry" />
        </mxCell>
        <mxCell id="QLpQPQBqjzIg62Oa_utZ-4" value="" style="endArrow=classic;startArrow=classic;html=1;rounded=0;exitX=0.25;exitY=1;exitDx=0;exitDy=0;entryX=1;entryY=0;entryDx=0;entryDy=0;" edge="1" parent="1" source="QLpQPQBqjzIg62Oa_utZ-3" target="sA4vVsF-4TFoveLAqz5J-5">
          <mxGeometry width="50" height="50" relative="1" as="geometry">
            <mxPoint x="390" y="410" as="sourcePoint" />
            <mxPoint x="440" y="360" as="targetPoint" />
          </mxGeometry>
        </mxCell>
        <mxCell id="QLpQPQBqjzIg62Oa_utZ-5" value="Actualiza" style="edgeLabel;html=1;align=center;verticalAlign=middle;resizable=0;points=[];" vertex="1" connectable="0" parent="QLpQPQBqjzIg62Oa_utZ-4">
          <mxGeometry x="0.3303" y="-1" relative="1" as="geometry">
            <mxPoint x="18" y="-5" as="offset" />
          </mxGeometry>
        </mxCell>
        <mxCell id="QLpQPQBqjzIg62Oa_utZ-8" value="" style="endArrow=classic;html=1;rounded=0;entryX=1;entryY=1;entryDx=0;entryDy=0;exitX=0.25;exitY=0;exitDx=0;exitDy=0;" edge="1" parent="1" source="QLpQPQBqjzIg62Oa_utZ-3" target="sA4vVsF-4TFoveLAqz5J-2">
          <mxGeometry width="50" height="50" relative="1" as="geometry">
            <mxPoint x="390" y="410" as="sourcePoint" />
            <mxPoint x="440" y="360" as="targetPoint" />
          </mxGeometry>
        </mxCell>
        <mxCell id="QLpQPQBqjzIg62Oa_utZ-9" value="Dificultad" style="edgeLabel;html=1;align=center;verticalAlign=middle;resizable=0;points=[];" vertex="1" connectable="0" parent="QLpQPQBqjzIg62Oa_utZ-8">
          <mxGeometry x="-0.0697" y="-1" relative="1" as="geometry">
            <mxPoint as="offset" />
          </mxGeometry>
        </mxCell>
        <mxCell id="xL_6orxPe1uaIk0oK8Rf-3" value="Opcion Menú" style="edgeLabel;html=1;align=center;verticalAlign=middle;resizable=0;points=[];" vertex="1" connectable="0" parent="1">
          <mxGeometry x="220.00313212592536" y="279.9978636201021" as="geometry" />
        </mxCell>
        <mxCell id="xL_6orxPe1uaIk0oK8Rf-4" value="Opcion Menú" style="edgeLabel;html=1;align=center;verticalAlign=middle;resizable=0;points=[];" vertex="1" connectable="0" parent="1">
          <mxGeometry x="260.0031321259254" y="379.9978636201021" as="geometry" />
        </mxCell>
        <mxCell id="xL_6orxPe1uaIk0oK8Rf-5" value="Opcion Menú" style="edgeLabel;html=1;align=center;verticalAlign=middle;resizable=0;points=[];" vertex="1" connectable="0" parent="1">
          <mxGeometry x="230.00313212592533" y="489.9978636201021" as="geometry" />
        </mxCell>
      </root>
    </mxGraphModel>
  </diagram>
  <diagram id="pxUqnTKiZIorO2B4xDCg" name="Nivel 2">
    <mxGraphModel dx="1434" dy="746" grid="1" gridSize="10" guides="1" tooltips="1" connect="1" arrows="1" fold="1" page="1" pageScale="1" pageWidth="827" pageHeight="1169" math="0" shadow="0">
      <root>
        <mxCell id="0" />
        <mxCell id="1" parent="0" />
        <mxCell id="2Ldrngavv_aRy9j2e9Nc-1" value="2. Jugar" style="ellipse;whiteSpace=wrap;html=1;aspect=fixed;fillColor=#fff2cc;strokeColor=#d6b656;" vertex="1" parent="1">
          <mxGeometry x="30" y="100" width="80" height="80" as="geometry" />
        </mxCell>
        <mxCell id="2Ldrngavv_aRy9j2e9Nc-5" style="rounded=0;orthogonalLoop=1;jettySize=auto;html=1;entryX=1;entryY=0;entryDx=0;entryDy=0;" edge="1" parent="1" target="2Ldrngavv_aRy9j2e9Nc-1">
          <mxGeometry relative="1" as="geometry">
            <mxPoint x="230" y="80" as="sourcePoint" />
            <mxPoint x="70" y="100" as="targetPoint" />
          </mxGeometry>
        </mxCell>
        <mxCell id="2Ldrngavv_aRy9j2e9Nc-3" value="Opcion Quiere Jugar&lt;br&gt;Movimiento Jugador&lt;br&gt;Salir Pantalla de Victoria&lt;br&gt;Salir pantalla de Derrota" style="text;html=1;strokeColor=none;fillColor=none;align=center;verticalAlign=middle;whiteSpace=wrap;rounded=0;" vertex="1" parent="1">
          <mxGeometry x="230" y="20" width="140" height="80" as="geometry" />
        </mxCell>
        <mxCell id="2Ldrngavv_aRy9j2e9Nc-4" value="" style="endArrow=none;dashed=1;html=1;dashPattern=1 3;strokeWidth=2;rounded=0;" edge="1" parent="1">
          <mxGeometry width="50" height="50" relative="1" as="geometry">
            <mxPoint x="10" y="200" as="sourcePoint" />
            <mxPoint x="730" y="200" as="targetPoint" />
          </mxGeometry>
        </mxCell>
        <mxCell id="YUrBFBhteo9NiRsNtYMh-9" style="edgeStyle=orthogonalEdgeStyle;rounded=0;orthogonalLoop=1;jettySize=auto;html=1;exitX=1;exitY=0.5;exitDx=0;exitDy=0;entryX=0;entryY=0.5;entryDx=0;entryDy=0;" edge="1" parent="1" source="2Ldrngavv_aRy9j2e9Nc-6" target="YUrBFBhteo9NiRsNtYMh-3">
          <mxGeometry relative="1" as="geometry" />
        </mxCell>
        <mxCell id="2Ldrngavv_aRy9j2e9Nc-6" value="2.2 Mostrar Mapa" style="ellipse;whiteSpace=wrap;html=1;aspect=fixed;fillColor=#fff2cc;strokeColor=#d6b656;" vertex="1" parent="1">
          <mxGeometry x="240" y="310" width="110" height="110" as="geometry" />
        </mxCell>
        <mxCell id="YUrBFBhteo9NiRsNtYMh-1" value="Mapa&lt;br&gt;Quiere jugar&lt;br&gt;Pantalla de Victoria&lt;br&gt;Pantalla de Derrota" style="text;html=1;strokeColor=none;fillColor=none;align=center;verticalAlign=middle;whiteSpace=wrap;rounded=0;" vertex="1" parent="1">
          <mxGeometry x="275" y="100" width="120" height="80" as="geometry" />
        </mxCell>
        <mxCell id="YUrBFBhteo9NiRsNtYMh-2" value="" style="endArrow=classic;html=1;rounded=0;exitX=1;exitY=0.5;exitDx=0;exitDy=0;" edge="1" parent="1">
          <mxGeometry width="50" height="50" relative="1" as="geometry">
            <mxPoint x="110" y="140" as="sourcePoint" />
            <mxPoint x="275" y="140" as="targetPoint" />
          </mxGeometry>
        </mxCell>
        <mxCell id="YUrBFBhteo9NiRsNtYMh-5" style="edgeStyle=orthogonalEdgeStyle;rounded=0;orthogonalLoop=1;jettySize=auto;html=1;exitX=0.5;exitY=0;exitDx=0;exitDy=0;entryX=0.5;entryY=0;entryDx=0;entryDy=0;" edge="1" parent="1" source="YUrBFBhteo9NiRsNtYMh-3" target="YUrBFBhteo9NiRsNtYMh-4">
          <mxGeometry relative="1" as="geometry">
            <Array as="points">
              <mxPoint x="495" y="230" />
              <mxPoint x="95" y="230" />
            </Array>
          </mxGeometry>
        </mxCell>
        <mxCell id="YUrBFBhteo9NiRsNtYMh-6" value="No" style="edgeLabel;html=1;align=center;verticalAlign=middle;resizable=0;points=[];" vertex="1" connectable="0" parent="YUrBFBhteo9NiRsNtYMh-5">
          <mxGeometry x="-0.9143" relative="1" as="geometry">
            <mxPoint as="offset" />
          </mxGeometry>
        </mxCell>
        <mxCell id="YUrBFBhteo9NiRsNtYMh-10" style="edgeStyle=orthogonalEdgeStyle;rounded=0;orthogonalLoop=1;jettySize=auto;html=1;exitX=0.5;exitY=1;exitDx=0;exitDy=0;entryX=1;entryY=1;entryDx=0;entryDy=0;" edge="1" parent="1" source="YUrBFBhteo9NiRsNtYMh-3" target="2Ldrngavv_aRy9j2e9Nc-6">
          <mxGeometry relative="1" as="geometry">
            <Array as="points">
              <mxPoint x="495" y="440" />
              <mxPoint x="334" y="440" />
            </Array>
          </mxGeometry>
        </mxCell>
        <mxCell id="YUrBFBhteo9NiRsNtYMh-11" value="si" style="edgeLabel;html=1;align=center;verticalAlign=middle;resizable=0;points=[];" vertex="1" connectable="0" parent="YUrBFBhteo9NiRsNtYMh-10">
          <mxGeometry x="-0.4936" y="-2" relative="1" as="geometry">
            <mxPoint as="offset" />
          </mxGeometry>
        </mxCell>
        <mxCell id="YUrBFBhteo9NiRsNtYMh-3" value="2.3 Quiere Jugar?" style="ellipse;whiteSpace=wrap;html=1;aspect=fixed;fillColor=#fff2cc;strokeColor=#d6b656;" vertex="1" parent="1">
          <mxGeometry x="440" y="310" width="110" height="110" as="geometry" />
        </mxCell>
        <mxCell id="YUrBFBhteo9NiRsNtYMh-7" style="edgeStyle=orthogonalEdgeStyle;rounded=0;orthogonalLoop=1;jettySize=auto;html=1;exitX=1;exitY=0.5;exitDx=0;exitDy=0;entryX=0;entryY=0.5;entryDx=0;entryDy=0;" edge="1" parent="1" source="YUrBFBhteo9NiRsNtYMh-4" target="2Ldrngavv_aRy9j2e9Nc-6">
          <mxGeometry relative="1" as="geometry" />
        </mxCell>
        <mxCell id="xIc4fS2Kl5nUVtPuLyjG-2" style="rounded=0;orthogonalLoop=1;jettySize=auto;html=1;exitX=0.5;exitY=1;exitDx=0;exitDy=0;entryX=0.5;entryY=0;entryDx=0;entryDy=0;" edge="1" parent="1" source="YUrBFBhteo9NiRsNtYMh-4" target="xIc4fS2Kl5nUVtPuLyjG-1">
          <mxGeometry relative="1" as="geometry" />
        </mxCell>
        <mxCell id="xIc4fS2Kl5nUVtPuLyjG-3" value="Laberinto&amp;nbsp;" style="edgeLabel;html=1;align=center;verticalAlign=middle;resizable=0;points=[];" vertex="1" connectable="0" parent="xIc4fS2Kl5nUVtPuLyjG-2">
          <mxGeometry x="-0.6" relative="1" as="geometry">
            <mxPoint x="4" y="8" as="offset" />
          </mxGeometry>
        </mxCell>
        <mxCell id="YUrBFBhteo9NiRsNtYMh-4" value="2.1 Generar Mapa" style="ellipse;whiteSpace=wrap;html=1;aspect=fixed;fillColor=#fff2cc;strokeColor=#d6b656;" vertex="1" parent="1">
          <mxGeometry x="40" y="310" width="110" height="110" as="geometry" />
        </mxCell>
        <mxCell id="YUrBFBhteo9NiRsNtYMh-12" value="" style="endArrow=classic;html=1;rounded=0;exitX=1;exitY=0;exitDx=0;exitDy=0;" edge="1" parent="1" source="2Ldrngavv_aRy9j2e9Nc-6">
          <mxGeometry width="50" height="50" relative="1" as="geometry">
            <mxPoint x="390" y="410" as="sourcePoint" />
            <mxPoint x="380" y="310" as="targetPoint" />
          </mxGeometry>
        </mxCell>
        <mxCell id="YUrBFBhteo9NiRsNtYMh-13" value="Mapa" style="edgeLabel;html=1;align=center;verticalAlign=middle;resizable=0;points=[];" vertex="1" connectable="0" parent="YUrBFBhteo9NiRsNtYMh-12">
          <mxGeometry x="-0.3607" y="3" relative="1" as="geometry">
            <mxPoint x="2" y="-8" as="offset" />
          </mxGeometry>
        </mxCell>
        <mxCell id="YUrBFBhteo9NiRsNtYMh-14" value="&lt;span style=&quot;color: rgb(0, 0, 0); font-family: Helvetica; font-size: 12px; font-style: normal; font-variant-ligatures: normal; font-variant-caps: normal; font-weight: 400; letter-spacing: normal; orphans: 2; text-align: center; text-indent: 0px; text-transform: none; widows: 2; word-spacing: 0px; -webkit-text-stroke-width: 0px; background-color: rgb(251, 251, 251); text-decoration-thickness: initial; text-decoration-style: initial; text-decoration-color: initial; float: none; display: inline !important;&quot;&gt;Opcion Quiere Jugar&lt;/span&gt;" style="text;whiteSpace=wrap;html=1;" vertex="1" parent="1">
          <mxGeometry x="620" y="270" width="120" height="20" as="geometry" />
        </mxCell>
        <mxCell id="YUrBFBhteo9NiRsNtYMh-15" value="" style="endArrow=classic;html=1;rounded=0;entryX=1;entryY=0.5;entryDx=0;entryDy=0;" edge="1" parent="1" target="YUrBFBhteo9NiRsNtYMh-3">
          <mxGeometry width="50" height="50" relative="1" as="geometry">
            <mxPoint x="650" y="300" as="sourcePoint" />
            <mxPoint x="670" y="320" as="targetPoint" />
          </mxGeometry>
        </mxCell>
        <mxCell id="YUrBFBhteo9NiRsNtYMh-16" value="" style="endArrow=classic;html=1;rounded=0;exitX=0.5;exitY=1;exitDx=0;exitDy=0;entryX=0.5;entryY=0;entryDx=0;entryDy=0;" edge="1" parent="1" source="2Ldrngavv_aRy9j2e9Nc-6" target="YUrBFBhteo9NiRsNtYMh-17">
          <mxGeometry width="50" height="50" relative="1" as="geometry">
            <mxPoint x="390" y="410" as="sourcePoint" />
            <mxPoint x="330" y="490" as="targetPoint" />
          </mxGeometry>
        </mxCell>
        <mxCell id="YUrBFBhteo9NiRsNtYMh-22" value="Mapa con posicion&lt;br&gt;actualizada" style="edgeLabel;html=1;align=center;verticalAlign=middle;resizable=0;points=[];" vertex="1" connectable="0" parent="YUrBFBhteo9NiRsNtYMh-16">
          <mxGeometry x="0.32" y="1" relative="1" as="geometry">
            <mxPoint x="27" as="offset" />
          </mxGeometry>
        </mxCell>
        <mxCell id="xIc4fS2Kl5nUVtPuLyjG-7" style="rounded=0;orthogonalLoop=1;jettySize=auto;html=1;exitX=0.5;exitY=1;exitDx=0;exitDy=0;entryX=1;entryY=0;entryDx=0;entryDy=0;" edge="1" parent="1" source="YUrBFBhteo9NiRsNtYMh-17" target="xIc4fS2Kl5nUVtPuLyjG-6">
          <mxGeometry relative="1" as="geometry" />
        </mxCell>
        <mxCell id="xIc4fS2Kl5nUVtPuLyjG-8" value="Movimiento" style="edgeLabel;html=1;align=center;verticalAlign=middle;resizable=0;points=[];" vertex="1" connectable="0" parent="xIc4fS2Kl5nUVtPuLyjG-7">
          <mxGeometry x="0.0502" y="1" relative="1" as="geometry">
            <mxPoint as="offset" />
          </mxGeometry>
        </mxCell>
        <mxCell id="YUrBFBhteo9NiRsNtYMh-17" value="2.4 Mover Jugador" style="ellipse;whiteSpace=wrap;html=1;aspect=fixed;fillColor=#fff2cc;strokeColor=#d6b656;" vertex="1" parent="1">
          <mxGeometry x="240" y="510" width="100" height="100" as="geometry" />
        </mxCell>
        <mxCell id="YUrBFBhteo9NiRsNtYMh-18" style="rounded=0;orthogonalLoop=1;jettySize=auto;html=1;exitX=0;exitY=0;exitDx=0;exitDy=0;entryX=1;entryY=0.25;entryDx=0;entryDy=0;" edge="1" parent="1" source="YUrBFBhteo9NiRsNtYMh-17" target="xIc4fS2Kl5nUVtPuLyjG-1">
          <mxGeometry relative="1" as="geometry" />
        </mxCell>
        <mxCell id="YUrBFBhteo9NiRsNtYMh-21" value="Posicion Jugador" style="edgeLabel;html=1;align=center;verticalAlign=middle;resizable=0;points=[];" vertex="1" connectable="0" parent="YUrBFBhteo9NiRsNtYMh-18">
          <mxGeometry x="0.0917" y="3" relative="1" as="geometry">
            <mxPoint x="8" y="-1" as="offset" />
          </mxGeometry>
        </mxCell>
        <mxCell id="YUrBFBhteo9NiRsNtYMh-19" value="" style="endArrow=classic;html=1;rounded=0;entryX=0;entryY=1;entryDx=0;entryDy=0;" edge="1" parent="1" target="YUrBFBhteo9NiRsNtYMh-17">
          <mxGeometry width="50" height="50" relative="1" as="geometry">
            <mxPoint x="180" y="600" as="sourcePoint" />
            <mxPoint x="254.64466094067257" y="605.3553390593274" as="targetPoint" />
          </mxGeometry>
        </mxCell>
        <mxCell id="YUrBFBhteo9NiRsNtYMh-20" value="Movimiento Jugador" style="edgeLabel;html=1;align=center;verticalAlign=middle;resizable=0;points=[];" vertex="1" connectable="0" parent="YUrBFBhteo9NiRsNtYMh-19">
          <mxGeometry x="-0.44" y="-4" relative="1" as="geometry">
            <mxPoint x="-28" y="-26" as="offset" />
          </mxGeometry>
        </mxCell>
        <mxCell id="xIc4fS2Kl5nUVtPuLyjG-11" style="rounded=0;orthogonalLoop=1;jettySize=auto;html=1;exitX=0.25;exitY=1;exitDx=0;exitDy=0;entryX=0;entryY=0.5;entryDx=0;entryDy=0;" edge="1" parent="1" source="xIc4fS2Kl5nUVtPuLyjG-1" target="xIc4fS2Kl5nUVtPuLyjG-6">
          <mxGeometry relative="1" as="geometry" />
        </mxCell>
        <mxCell id="xIc4fS2Kl5nUVtPuLyjG-12" value="Posicion Jugador&lt;br&gt;Posiciones Adyacentes" style="edgeLabel;html=1;align=center;verticalAlign=middle;resizable=0;points=[];" vertex="1" connectable="0" parent="xIc4fS2Kl5nUVtPuLyjG-11">
          <mxGeometry x="0.2726" y="-2" relative="1" as="geometry">
            <mxPoint as="offset" />
          </mxGeometry>
        </mxCell>
        <mxCell id="xIc4fS2Kl5nUVtPuLyjG-1" value="Laberinto" style="shape=partialRectangle;whiteSpace=wrap;html=1;left=0;right=0;fillColor=#f5f5f5;fontColor=#333333;strokeColor=#666666;" vertex="1" parent="1">
          <mxGeometry x="40" y="480" width="120" height="60" as="geometry" />
        </mxCell>
        <mxCell id="xIc4fS2Kl5nUVtPuLyjG-4" style="rounded=0;orthogonalLoop=1;jettySize=auto;html=1;exitX=0.75;exitY=0;exitDx=0;exitDy=0;entryX=-0.009;entryY=0.664;entryDx=0;entryDy=0;entryPerimeter=0;" edge="1" parent="1" source="xIc4fS2Kl5nUVtPuLyjG-1" target="2Ldrngavv_aRy9j2e9Nc-6">
          <mxGeometry relative="1" as="geometry" />
        </mxCell>
        <mxCell id="xIc4fS2Kl5nUVtPuLyjG-5" value="Laberinto" style="edgeLabel;html=1;align=center;verticalAlign=middle;resizable=0;points=[];" vertex="1" connectable="0" parent="xIc4fS2Kl5nUVtPuLyjG-4">
          <mxGeometry x="-0.6038" y="2" relative="1" as="geometry">
            <mxPoint as="offset" />
          </mxGeometry>
        </mxCell>
        <mxCell id="xIc4fS2Kl5nUVtPuLyjG-9" style="edgeStyle=orthogonalEdgeStyle;rounded=0;orthogonalLoop=1;jettySize=auto;html=1;exitX=1;exitY=0.5;exitDx=0;exitDy=0;entryX=1;entryY=1;entryDx=0;entryDy=0;" edge="1" parent="1" source="xIc4fS2Kl5nUVtPuLyjG-6" target="YUrBFBhteo9NiRsNtYMh-17">
          <mxGeometry relative="1" as="geometry">
            <Array as="points">
              <mxPoint x="275" y="690" />
              <mxPoint x="325" y="690" />
            </Array>
          </mxGeometry>
        </mxCell>
        <mxCell id="xIc4fS2Kl5nUVtPuLyjG-14" value="Elemento adyacente libre" style="edgeLabel;html=1;align=center;verticalAlign=middle;resizable=0;points=[];" vertex="1" connectable="0" parent="xIc4fS2Kl5nUVtPuLyjG-9">
          <mxGeometry x="-0.1177" y="-2" relative="1" as="geometry">
            <mxPoint x="13" y="-22" as="offset" />
          </mxGeometry>
        </mxCell>
        <mxCell id="xIc4fS2Kl5nUVtPuLyjG-15" style="rounded=0;orthogonalLoop=1;jettySize=auto;html=1;exitX=1;exitY=1;exitDx=0;exitDy=0;entryX=0;entryY=0.5;entryDx=0;entryDy=0;" edge="1" parent="1" source="xIc4fS2Kl5nUVtPuLyjG-6" target="xIc4fS2Kl5nUVtPuLyjG-13">
          <mxGeometry relative="1" as="geometry" />
        </mxCell>
        <mxCell id="xIc4fS2Kl5nUVtPuLyjG-16" value="Elemento adyacente&amp;nbsp; Meta" style="edgeLabel;html=1;align=center;verticalAlign=middle;resizable=0;points=[];" vertex="1" connectable="0" parent="xIc4fS2Kl5nUVtPuLyjG-15">
          <mxGeometry x="-0.1363" y="-2" relative="1" as="geometry">
            <mxPoint as="offset" />
          </mxGeometry>
        </mxCell>
        <mxCell id="xIc4fS2Kl5nUVtPuLyjG-6" value="2.5 Validar Movimiento" style="ellipse;whiteSpace=wrap;html=1;aspect=fixed;fillColor=#fff2cc;strokeColor=#d6b656;" vertex="1" parent="1">
          <mxGeometry x="175" y="650" width="100" height="100" as="geometry" />
        </mxCell>
        <mxCell id="xIc4fS2Kl5nUVtPuLyjG-13" value="2.6 Pantalla Victoria" style="ellipse;whiteSpace=wrap;html=1;aspect=fixed;fillColor=#fff2cc;strokeColor=#d6b656;" vertex="1" parent="1">
          <mxGeometry x="570" y="640" width="110" height="110" as="geometry" />
        </mxCell>
        <mxCell id="xIc4fS2Kl5nUVtPuLyjG-17" style="rounded=0;orthogonalLoop=1;jettySize=auto;html=1;exitX=0.76;exitY=0.96;exitDx=0;exitDy=0;entryX=0;entryY=0.5;entryDx=0;entryDy=0;exitPerimeter=0;" edge="1" parent="1" target="xIc4fS2Kl5nUVtPuLyjG-19" source="xIc4fS2Kl5nUVtPuLyjG-6">
          <mxGeometry relative="1" as="geometry">
            <mxPoint x="370" y="860" as="sourcePoint" />
          </mxGeometry>
        </mxCell>
        <mxCell id="xIc4fS2Kl5nUVtPuLyjG-18" value="Elemento adyacente&amp;nbsp; Muro" style="edgeLabel;html=1;align=center;verticalAlign=middle;resizable=0;points=[];" vertex="1" connectable="0" parent="xIc4fS2Kl5nUVtPuLyjG-17">
          <mxGeometry x="-0.1363" y="-2" relative="1" as="geometry">
            <mxPoint as="offset" />
          </mxGeometry>
        </mxCell>
        <mxCell id="xIc4fS2Kl5nUVtPuLyjG-19" value="2.7 Pantalla Derrota" style="ellipse;whiteSpace=wrap;html=1;aspect=fixed;fillColor=#fff2cc;strokeColor=#d6b656;" vertex="1" parent="1">
          <mxGeometry x="570" y="760" width="110" height="110" as="geometry" />
        </mxCell>
        <mxCell id="xIc4fS2Kl5nUVtPuLyjG-20" value="" style="endArrow=classic;html=1;rounded=0;exitX=1;exitY=1;exitDx=0;exitDy=0;" edge="1" parent="1" source="YUrBFBhteo9NiRsNtYMh-3">
          <mxGeometry width="50" height="50" relative="1" as="geometry">
            <mxPoint x="600" y="420" as="sourcePoint" />
            <mxPoint x="670" y="420" as="targetPoint" />
          </mxGeometry>
        </mxCell>
        <mxCell id="xIc4fS2Kl5nUVtPuLyjG-21" value="Quiere Jugar" style="edgeLabel;html=1;align=center;verticalAlign=middle;resizable=0;points=[];" vertex="1" connectable="0" parent="xIc4fS2Kl5nUVtPuLyjG-20">
          <mxGeometry x="0.2217" relative="1" as="geometry">
            <mxPoint x="33" y="-14" as="offset" />
          </mxGeometry>
        </mxCell>
        <mxCell id="xIc4fS2Kl5nUVtPuLyjG-22" value="" style="endArrow=classic;html=1;rounded=0;exitX=0.773;exitY=0.073;exitDx=0;exitDy=0;exitPerimeter=0;" edge="1" parent="1" source="xIc4fS2Kl5nUVtPuLyjG-13">
          <mxGeometry width="50" height="50" relative="1" as="geometry">
            <mxPoint x="670" y="640" as="sourcePoint" />
            <mxPoint x="750" y="600" as="targetPoint" />
          </mxGeometry>
        </mxCell>
        <mxCell id="xIc4fS2Kl5nUVtPuLyjG-23" value="Pantalla de Victoria" style="edgeLabel;html=1;align=center;verticalAlign=middle;resizable=0;points=[];" vertex="1" connectable="0" parent="xIc4fS2Kl5nUVtPuLyjG-22">
          <mxGeometry x="-0.3025" y="3" relative="1" as="geometry">
            <mxPoint x="53" y="-39" as="offset" />
          </mxGeometry>
        </mxCell>
        <mxCell id="xIc4fS2Kl5nUVtPuLyjG-25" value="" style="endArrow=classic;html=1;rounded=0;" edge="1" parent="1" source="xIc4fS2Kl5nUVtPuLyjG-19">
          <mxGeometry width="50" height="50" relative="1" as="geometry">
            <mxPoint x="680" y="788" as="sourcePoint" />
            <mxPoint x="790" y="760" as="targetPoint" />
          </mxGeometry>
        </mxCell>
        <mxCell id="xIc4fS2Kl5nUVtPuLyjG-26" value="Pantalla de Derrota" style="edgeLabel;html=1;align=center;verticalAlign=middle;resizable=0;points=[];" vertex="1" connectable="0" parent="xIc4fS2Kl5nUVtPuLyjG-25">
          <mxGeometry x="-0.3025" y="3" relative="1" as="geometry">
            <mxPoint x="53" y="-39" as="offset" />
          </mxGeometry>
        </mxCell>
        <mxCell id="xIc4fS2Kl5nUVtPuLyjG-27" value="" style="endArrow=classic;html=1;rounded=0;entryX=1;entryY=0.5;entryDx=0;entryDy=0;" edge="1" parent="1" target="xIc4fS2Kl5nUVtPuLyjG-13">
          <mxGeometry width="50" height="50" relative="1" as="geometry">
            <mxPoint x="780" y="690" as="sourcePoint" />
            <mxPoint x="440" y="460" as="targetPoint" />
          </mxGeometry>
        </mxCell>
        <mxCell id="xIc4fS2Kl5nUVtPuLyjG-28" value="Salir Pantalla de Victoria" style="edgeLabel;html=1;align=center;verticalAlign=middle;resizable=0;points=[];" vertex="1" connectable="0" parent="xIc4fS2Kl5nUVtPuLyjG-27">
          <mxGeometry x="-0.0613" y="-1" relative="1" as="geometry">
            <mxPoint x="27" y="-11" as="offset" />
          </mxGeometry>
        </mxCell>
        <mxCell id="xIc4fS2Kl5nUVtPuLyjG-29" value="" style="endArrow=classic;html=1;rounded=0;entryX=1;entryY=0.736;entryDx=0;entryDy=0;entryPerimeter=0;" edge="1" parent="1" target="xIc4fS2Kl5nUVtPuLyjG-19">
          <mxGeometry width="50" height="50" relative="1" as="geometry">
            <mxPoint x="810" y="841" as="sourcePoint" />
            <mxPoint x="820" y="800" as="targetPoint" />
          </mxGeometry>
        </mxCell>
        <mxCell id="xIc4fS2Kl5nUVtPuLyjG-30" value="Salir Pantalla de Derrota" style="edgeLabel;html=1;align=center;verticalAlign=middle;resizable=0;points=[];" vertex="1" connectable="0" parent="xIc4fS2Kl5nUVtPuLyjG-29">
          <mxGeometry x="-0.3846" y="1" relative="1" as="geometry">
            <mxPoint x="-20" y="-12" as="offset" />
          </mxGeometry>
        </mxCell>
      </root>
    </mxGraphModel>
  </diagram>
</mxfile>
